<svg class="diagram-root" style="background: #f5f6f6" xmlns="http://www.w3.org/2000/svg" xmlns:xlink="http://www.w3.org/1999/xlink"><style>.diagram-root { font-family: "Helvetica Neue", sans-serif; font-size: 12px; } .t { overflow: visible; } .t-bg { y: 40; fill: #fff;   } .th { fill: #005aa0;   } .tht { fill: #fff; font-size: 14px;  } .tf { fill: #323c46; overflow: visible; } .tf.pk { fill: #005aa0; font-weight: bold; } .tf.fk { font-weight: bold; } .ty { fill: #adb1b5; font-weight: normal; text-anchor: end; } .r { fill: transparent; stroke: #c3c3c3; stroke-width: 1; } .l { stroke: 1; } .i { fill: #c2c7ce; stroke: #c2c7ce; } .i.ix { fill: #afb3b6; stroke: #000; } .fa { fill: transparent; overflow: visible; } .fa .bg.hover { fill: #f7f7f7; } .c { cy: 12; r: 4; stroke: #d2d2dc; fill: #d2d2dc; } .hr { fill: transparent; stroke: #323c46; stroke-opacity: 0.035; stroke-width: 13; } .dc { stroke: #fa5a3c; fill: #fa5a3c; } .x { stroke: white; stroke-width: 1; } .hl .th { fill: #1b9bff; } .hl .tht {  } .fhl .bg { fill: #e7f4ff; } .fhls .bg {  } .r.hl { stroke: #1b9bff; } .dim { opacity: 0.25; }</style><g class="drawing-wrapper" transform="translate(-156.6666666666667, 21) scale(1,1)"><g class="rs"><path d="M 406.38 139 m -1, 0 a 1,1 0 1,0 2,0 a 1,1 0 1,0 -2,0 M 406.38 139 m -0.5, 0 a 0.5,0.5 0 1,0 1,0 a 0.5,0.5 0 1,0 -1,0  M406.38 139 L406.38 139 418.38 139 M 406.38 145 m -1, 0 a 1,1 0 1,0 2,0 a 1,1 0 1,0 -2,0 M 406.38 145 m -0.5, 0 a 0.5,0.5 0 1,0 1,0 a 0.5,0.5 0 1,0 -1,0  M406.38 145 L406.38 145 413.38 139 406.38 133 M 406.38 133 m -1, 0 a 1,1 0 1,0 2,0 a 1,1 0 1,0 -2,0 M 406.38 133 m -0.5, 0 a 0.5,0.5 0 1,0 1,0 a 0.5,0.5 0 1,0 -1,0  M418.38 139 Q 434.29 139, 450.19 165 T 482 191 M 494 191 m -1, 0 a 1,1 0 1,0 2,0 a 1,1 0 1,0 -2,0 M 494 191 m -0.5, 0 a 0.5,0.5 0 1,0 1,0 a 0.5,0.5 0 1,0 -1,0  M494 191 L494 191 482 191 M488 197 L488 197 488 185" id="h4232534043" class="r"></path><path d="M 403.43 343.33 m -1, 0 a 1,1 0 1,0 2,0 a 1,1 0 1,0 -2,0 M 403.43 343.33 m -0.5, 0 a 0.5,0.5 0 1,0 1,0 a 0.5,0.5 0 1,0 -1,0  M403.43 343.33 L403.43 343.33 415.43 343.33 M 403.43 349.33 m -1, 0 a 1,1 0 1,0 2,0 a 1,1 0 1,0 -2,0 M 403.43 349.33 m -0.5, 0 a 0.5,0.5 0 1,0 1,0 a 0.5,0.5 0 1,0 -1,0  M403.43 349.33 L403.43 349.33 410.43 343.33 403.43 337.33 M 403.43 337.33 m -1, 0 a 1,1 0 1,0 2,0 a 1,1 0 1,0 -2,0 M 403.43 337.33 m -0.5, 0 a 0.5,0.5 0 1,0 1,0 a 0.5,0.5 0 1,0 -1,0  M415.43 343.33 Q 432.08 343.33, 448.72 292.16 T 482 241 M 494 241 m -1, 0 a 1,1 0 1,0 2,0 a 1,1 0 1,0 -2,0 M 494 241 m -0.5, 0 a 0.5,0.5 0 1,0 1,0 a 0.5,0.5 0 1,0 -1,0  M494 241 L494 241 482 241 M488 247 L488 247 488 235" id="h1165146666" class="r"></path><path d="M 745.67 304.33000000000004 m -1, 0 a 1,1 0 1,0 2,0 a 1,1 0 1,0 -2,0 M 745.67 304.33000000000004 m -0.5, 0 a 0.5,0.5 0 1,0 1,0 a 0.5,0.5 0 1,0 -1,0  M745.67 304.33000000000004 L745.67 304.33000000000004 733.67 304.33000000000004 M 745.67 310.33000000000004 m -1, 0 a 1,1 0 1,0 2,0 a 1,1 0 1,0 -2,0 M 745.67 310.33000000000004 m -0.5, 0 a 0.5,0.5 0 1,0 1,0 a 0.5,0.5 0 1,0 -1,0  M745.67 310.33000000000004 L745.67 310.33000000000004 738.67 304.33000000000004 745.67 298.33000000000004 M 745.67 298.33000000000004 m -1, 0 a 1,1 0 1,0 2,0 a 1,1 0 1,0 -2,0 M 745.67 298.33000000000004 m -0.5, 0 a 0.5,0.5 0 1,0 1,0 a 0.5,0.5 0 1,0 -1,0  M733.67 304.33000000000004 Q 714.6 304.33000000000004, 695.53 222.67 T 657.38 141 M 645.38 141 m -1, 0 a 1,1 0 1,0 2,0 a 1,1 0 1,0 -2,0 M 645.38 141 m -0.5, 0 a 0.5,0.5 0 1,0 1,0 a 0.5,0.5 0 1,0 -1,0  M645.38 141 L645.38 141 657.38 141 M651.38 147 L651.38 147 651.38 135" id="h2558411332" class="r"></path><path d="M 529.44 502.89 m -1, 0 a 1,1 0 1,0 2,0 a 1,1 0 1,0 -2,0 M 529.44 502.89 m -0.5, 0 a 0.5,0.5 0 1,0 1,0 a 0.5,0.5 0 1,0 -1,0  M529.44 502.89 L529.44 502.89 517.44 502.89 M 529.44 508.89 m -1, 0 a 1,1 0 1,0 2,0 a 1,1 0 1,0 -2,0 M 529.44 508.89 m -0.5, 0 a 0.5,0.5 0 1,0 1,0 a 0.5,0.5 0 1,0 -1,0  M529.44 508.89 L529.44 508.89 522.44 502.89 529.44 496.89 M 529.44 496.89 m -1, 0 a 1,1 0 1,0 2,0 a 1,1 0 1,0 -2,0 M 529.44 496.89 m -0.5, 0 a 0.5,0.5 0 1,0 1,0 a 0.5,0.5 0 1,0 -1,0  M517.44 502.89 C 467.44000000000005 502.89, 337.7020000000001 329.33000000000004, 733.67 329.33000000000004 M 745.67 329.33000000000004 m -1, 0 a 1,1 0 1,0 2,0 a 1,1 0 1,0 -2,0 M 745.67 329.33000000000004 m -0.5, 0 a 0.5,0.5 0 1,0 1,0 a 0.5,0.5 0 1,0 -1,0  M745.67 329.33000000000004 L745.67 329.33000000000004 733.67 329.33000000000004 M739.67 335.33000000000004 L739.67 335.33000000000004 739.67 323.33000000000004" id="h3690099745" class="r"></path><path d="M 428.4 658.33 m -1, 0 a 1,1 0 1,0 2,0 a 1,1 0 1,0 -2,0 M 428.4 658.33 m -0.5, 0 a 0.5,0.5 0 1,0 1,0 a 0.5,0.5 0 1,0 -1,0  M428.4 658.33 L428.4 658.33 440.4 658.33 M 428.4 664.33 m -1, 0 a 1,1 0 1,0 2,0 a 1,1 0 1,0 -2,0 M 428.4 664.33 m -0.5, 0 a 0.5,0.5 0 1,0 1,0 a 0.5,0.5 0 1,0 -1,0  M428.4 664.33 L428.4 664.33 435.4 658.33 428.4 652.33 M 428.4 652.33 m -1, 0 a 1,1 0 1,0 2,0 a 1,1 0 1,0 -2,0 M 428.4 652.33 m -0.5, 0 a 0.5,0.5 0 1,0 1,0 a 0.5,0.5 0 1,0 -1,0  M440.4 658.33 Q 459.66 658.33, 478.92 593.11 T 517.44 527.89 M 529.44 527.89 m -1, 0 a 1,1 0 1,0 2,0 a 1,1 0 1,0 -2,0 M 529.44 527.89 m -0.5, 0 a 0.5,0.5 0 1,0 1,0 a 0.5,0.5 0 1,0 -1,0  M529.44 527.89 L529.44 527.89 517.44 527.89 M523.44 533.89 L523.44 533.89 523.44 521.89" id="h4128432328" class="r"></path><path d="M 803.67 666.33 m -1, 0 a 1,1 0 1,0 2,0 a 1,1 0 1,0 -2,0 M 803.67 666.33 m -0.5, 0 a 0.5,0.5 0 1,0 1,0 a 0.5,0.5 0 1,0 -1,0  M803.67 666.33 L803.67 666.33 791.67 666.33 M 803.67 672.33 m -1, 0 a 1,1 0 1,0 2,0 a 1,1 0 1,0 -2,0 M 803.67 672.33 m -0.5, 0 a 0.5,0.5 0 1,0 1,0 a 0.5,0.5 0 1,0 -1,0  M803.67 672.33 L803.67 672.33 796.67 666.33 803.67 660.33 M 803.67 660.33 m -1, 0 a 1,1 0 1,0 2,0 a 1,1 0 1,0 -2,0 M 803.67 660.33 m -0.5, 0 a 0.5,0.5 0 1,0 1,0 a 0.5,0.5 0 1,0 -1,0  M791.67 666.33 Q 768.13 666.33, 744.58 597.11 T 697.49 527.89 M 685.49 527.89 m -1, 0 a 1,1 0 1,0 2,0 a 1,1 0 1,0 -2,0 M 685.49 527.89 m -0.5, 0 a 0.5,0.5 0 1,0 1,0 a 0.5,0.5 0 1,0 -1,0  M685.49 527.89 L685.49 527.89 697.49 527.89 M691.49 533.89 L691.49 533.89 691.49 521.89" id="h93918781" class="r"></path><path d="M 854.45 121.52 m -1, 0 a 1,1 0 1,0 2,0 a 1,1 0 1,0 -2,0 M 854.45 121.52 m -0.5, 0 a 0.5,0.5 0 1,0 1,0 a 0.5,0.5 0 1,0 -1,0  M854.45 121.52 L854.45 121.52 842.45 121.52 M 854.45 127.52 m -1, 0 a 1,1 0 1,0 2,0 a 1,1 0 1,0 -2,0 M 854.45 127.52 m -0.5, 0 a 0.5,0.5 0 1,0 1,0 a 0.5,0.5 0 1,0 -1,0  M854.45 127.52 L854.45 127.52 847.45 121.52 854.45 115.52 M 854.45 115.52 m -1, 0 a 1,1 0 1,0 2,0 a 1,1 0 1,0 -2,0 M 854.45 115.52 m -0.5, 0 a 0.5,0.5 0 1,0 1,0 a 0.5,0.5 0 1,0 -1,0  M842.45 121.52 Q 796.19 121.52, 749.92 118.76 T 657.38 116 M 645.38 116 m -1, 0 a 1,1 0 1,0 2,0 a 1,1 0 1,0 -2,0 M 645.38 116 m -0.5, 0 a 0.5,0.5 0 1,0 1,0 a 0.5,0.5 0 1,0 -1,0  M645.38 116 L645.38 116 657.38 116 M651.38 122 L651.38 122 651.38 110" id="h1623776180" class="r"></path><path d="M 1000.28 171.52 m -1, 0 a 1,1 0 1,0 2,0 a 1,1 0 1,0 -2,0 M 1000.28 171.52 m -0.5, 0 a 0.5,0.5 0 1,0 1,0 a 0.5,0.5 0 1,0 -1,0  M1000.28 171.52 L1000.28 171.52 1012.28 171.52 M 1000.28 177.52 m -1, 0 a 1,1 0 1,0 2,0 a 1,1 0 1,0 -2,0 M 1000.28 177.52 m -0.5, 0 a 0.5,0.5 0 1,0 1,0 a 0.5,0.5 0 1,0 -1,0  M1000.28 177.52 L1000.28 177.52 1007.28 171.52 1000.28 165.52 M 1000.28 165.52 m -1, 0 a 1,1 0 1,0 2,0 a 1,1 0 1,0 -2,0 M 1000.28 165.52 m -0.5, 0 a 0.5,0.5 0 1,0 1,0 a 0.5,0.5 0 1,0 -1,0  M1012.28 171.52 Q 1038.89 171.52, 1065.49 277.36 T 1118.71 383.19 M 1130.71 383.19 m -1, 0 a 1,1 0 1,0 2,0 a 1,1 0 1,0 -2,0 M 1130.71 383.19 m -0.5, 0 a 0.5,0.5 0 1,0 1,0 a 0.5,0.5 0 1,0 -1,0  M1130.71 383.19 L1130.71 383.19 1118.71 383.19 M1124.71 389.19 L1124.71 389.19 1124.71 377.19" id="h3508650252" class="r"></path><path d="M 1140 133.67000000000002 m -1, 0 a 1,1 0 1,0 2,0 a 1,1 0 1,0 -2,0 M 1140 133.67000000000002 m -0.5, 0 a 0.5,0.5 0 1,0 1,0 a 0.5,0.5 0 1,0 -1,0  M1140 133.67000000000002 L1140 133.67000000000002 1128 133.67000000000002 M 1140 139.67000000000002 m -1, 0 a 1,1 0 1,0 2,0 a 1,1 0 1,0 -2,0 M 1140 139.67000000000002 m -0.5, 0 a 0.5,0.5 0 1,0 1,0 a 0.5,0.5 0 1,0 -1,0  M1140 139.67000000000002 L1140 139.67000000000002 1133 133.67000000000002 1140 127.67000000000002 M 1140 127.67000000000002 m -1, 0 a 1,1 0 1,0 2,0 a 1,1 0 1,0 -2,0 M 1140 127.67000000000002 m -0.5, 0 a 0.5,0.5 0 1,0 1,0 a 0.5,0.5 0 1,0 -1,0  M1128 133.67000000000002 Q 1099.07 133.67000000000002, 1070.14 140.1 T 1012.28 146.52 M 1000.28 146.52 m -1, 0 a 1,1 0 1,0 2,0 a 1,1 0 1,0 -2,0 M 1000.28 146.52 m -0.5, 0 a 0.5,0.5 0 1,0 1,0 a 0.5,0.5 0 1,0 -1,0  M1000.28 146.52 L1000.28 146.52 1012.28 146.52 M1006.28 152.52 L1006.28 152.52 1006.28 140.52" id="h179667712" class="r"></path></g><g class="hrs"></g><g class="ts"><svg width="151.38" height="250" x="494" y="9" id="h63013430" class="t"><rect height="40" width="151.38" class="th"></rect><text x="13" y="25" class="tht">orders</text><rect height="210" width="151.38" class="t-bg" y="40"></rect><text x="13" y="61" class="tf pk">row_id<tspan x="138.38" class="ty">int</tspan></text><path d="M7,14A2,2 0 0,1 5,12A2,2 0 0,1 7,10A2,2 0 0,1 9,12A2,2 0 0,1 7,14M12.65,10C11.83,7.67 9.61,6 7, 6A6, 6 0 0, 0 1, 12A6, 6 0 0, 0 7, 18C9.61, 18 11.83, 16.33 12.65, 14H17V18H21V14H23V10H12.65Z" class="i pk" transform="translate(105.706171875, 48) scale(0.65)"></path><text x="13" y="86" class="tf">order_id<tspan x="138.38" class="ty">varchar(10)</tspan></text><text x="13" y="111" class="tf fk">created_at<tspan x="138.38" class="ty">datetime</tspan></text><text x="13" y="136" class="tf fk">item_id<tspan x="138.38" class="ty">varchar(10)</tspan></text><text x="13" y="161" class="tf">quantity<tspan x="138.38" class="ty">int</tspan></text><text x="13" y="186" class="tf fk">cust_id<tspan x="138.38" class="ty">int</tspan></text><text x="13" y="211" class="tf">delivery<tspan x="138.38" class="ty">boolean</tspan></text><text x="13" y="236" class="tf fk">add_id<tspan x="138.38" class="ty">int</tspan></text></svg><svg width="185.38" height="125" x="221" y="82" id="h2841425641" class="t"><rect height="40" width="185.38" class="th"></rect><text x="13" y="25" class="tht">customers</text><rect height="85" width="185.38" class="t-bg" y="40"></rect><text x="13" y="61" class="tf pk">cust_id<tspan x="172.38" class="ty">int</tspan></text><path d="M7,14A2,2 0 0,1 5,12A2,2 0 0,1 7,10A2,2 0 0,1 9,12A2,2 0 0,1 7,14M12.65,10C11.83,7.67 9.61,6 7, 6A6, 6 0 0, 0 1, 12A6, 6 0 0, 0 7, 18C9.61, 18 11.83, 16.33 12.65, 14H17V18H21V14H23V10H12.65Z" class="i pk" transform="translate(139.706171875, 48) scale(0.65)"></path><text x="13" y="86" class="tf">cust_firstname<tspan x="172.38" class="ty">varchar(50)</tspan></text><text x="13" y="111" class="tf">cust_lastname<tspan x="172.38" class="ty">varchar(50)</tspan></text></svg><svg width="224.76" height="175" x="178.67" y="286.33" id="h3861953418" class="t"><rect height="40" width="224.76" class="th"></rect><text x="13" y="25" class="tht">address</text><rect height="135" width="224.76" class="t-bg" y="40"></rect><text x="13" y="61" class="tf pk">add_id<tspan x="211.76" class="ty">int</tspan></text><path d="M7,14A2,2 0 0,1 5,12A2,2 0 0,1 7,10A2,2 0 0,1 9,12A2,2 0 0,1 7,14M12.65,10C11.83,7.67 9.61,6 7, 6A6, 6 0 0, 0 1, 12A6, 6 0 0, 0 7, 18C9.61, 18 11.83, 16.33 12.65, 14H17V18H21V14H23V10H12.65Z" class="i pk" transform="translate(179.086171875, 48) scale(0.65)"></path><text x="13" y="86" class="tf">delivery_address1<tspan x="211.76" class="ty">varchar(200)</tspan></text><text x="13" y="111" class="tf">delivery_address2<tspan x="211.76" class="ty">varchar(200)?</tspan></text><text x="13" y="136" class="tf">delivery_city<tspan x="211.76" class="ty">varchar(50)</tspan></text><text x="13" y="161" class="tf">delivery_zipcode<tspan x="211.76" class="ty">varchar(20)</tspan></text></svg><svg width="174.05" height="200" x="745.67" y="247.33" id="h1168452966" class="t"><rect height="40" width="174.05" class="th"></rect><text x="13" y="25" class="tht">item</text><rect height="160" width="174.05" class="t-bg" y="40"></rect><text x="13" y="61" class="tf pk">item_id<tspan x="161.05" class="ty">varchar(10)</tspan></text><path d="M7,14A2,2 0 0,1 5,12A2,2 0 0,1 7,10A2,2 0 0,1 9,12A2,2 0 0,1 7,14M12.65,10C11.83,7.67 9.61,6 7, 6A6, 6 0 0, 0 1, 12A6, 6 0 0, 0 7, 18C9.61, 18 11.83, 16.33 12.65, 14H17V18H21V14H23V10H12.65Z" class="i pk" transform="translate(79.69648437500001, 48) scale(0.65)"></path><text x="13" y="86" class="tf fk">sku<tspan x="161.05" class="ty">varchar(20)</tspan></text><text x="13" y="111" class="tf">item_name<tspan x="161.05" class="ty">varchar(100)</tspan></text><text x="13" y="136" class="tf">item_cat<tspan x="161.05" class="ty">varchar(100)</tspan></text><text x="13" y="161" class="tf">item_size<tspan x="161.05" class="ty">varchar(10)</tspan></text><text x="13" y="186" class="tf">item_price<tspan x="161.05" class="ty">decimal(10,2)</tspan></text></svg><svg width="156.05" height="150" x="529.44" y="420.89" id="h236439381" class="t"><rect height="40" width="156.05" class="th"></rect><text x="13" y="25" class="tht">recipe</text><rect height="110" width="156.05" class="t-bg" y="40"></rect><text x="13" y="61" class="tf pk">row_id<tspan x="143.05" class="ty">int</tspan></text><path d="M7,14A2,2 0 0,1 5,12A2,2 0 0,1 7,10A2,2 0 0,1 9,12A2,2 0 0,1 7,14M12.65,10C11.83,7.67 9.61,6 7, 6A6, 6 0 0, 0 1, 12A6, 6 0 0, 0 7, 18C9.61, 18 11.83, 16.33 12.65, 14H17V18H21V14H23V10H12.65Z" class="i pk" transform="translate(110.37617187500001, 48) scale(0.65)"></path><text x="13" y="86" class="tf fk">recipe_id<tspan x="143.05" class="ty">varchar(20)</tspan></text><text x="13" y="111" class="tf fk">ing_id<tspan x="143.05" class="ty">varchar(10)</tspan></text><text x="13" y="136" class="tf">quantity<tspan x="143.05" class="ty">int</tspan></text></svg><svg width="166.73" height="175" x="261.67" y="601.33" id="h1027429256" class="t"><rect height="40" width="166.73" class="th"></rect><text x="13" y="25" class="tht">ingridient</text><rect height="135" width="166.73" class="t-bg" y="40"></rect><text x="13" y="61" class="tf pk">ing_id<tspan x="153.73" class="ty">varchar(10)</tspan></text><path d="M7,14A2,2 0 0,1 5,12A2,2 0 0,1 7,10A2,2 0 0,1 9,12A2,2 0 0,1 7,14M12.65,10C11.83,7.67 9.61,6 7, 6A6, 6 0 0, 0 1, 12A6, 6 0 0, 0 7, 18C9.61, 18 11.83, 16.33 12.65, 14H17V18H21V14H23V10H12.65Z" class="i pk" transform="translate(72.37648437499999, 48) scale(0.65)"></path><text x="13" y="86" class="tf">ing_name<tspan x="153.73" class="ty">varchar(200)</tspan></text><text x="13" y="111" class="tf">ing_weight<tspan x="153.73" class="ty">int</tspan></text><text x="13" y="136" class="tf">ing_meas<tspan x="153.73" class="ty">varchar(20)</tspan></text><text x="13" y="161" class="tf">ing_price<tspan x="153.73" class="ty">decimal(5,2)</tspan></text></svg><svg width="146.04" height="125" x="803.67" y="584.33" id="h2363698624" class="t"><rect height="40" width="146.04" class="th"></rect><text x="13" y="25" class="tht">inventory</text><rect height="85" width="146.04" class="t-bg" y="40"></rect><text x="13" y="61" class="tf pk">inv_id<tspan x="133.04" class="ty">int</tspan></text><path d="M7,14A2,2 0 0,1 5,12A2,2 0 0,1 7,10A2,2 0 0,1 9,12A2,2 0 0,1 7,14M12.65,10C11.83,7.67 9.61,6 7, 6A6, 6 0 0, 0 1, 12A6, 6 0 0, 0 7, 18C9.61, 18 11.83, 16.33 12.65, 14H17V18H21V14H23V10H12.65Z" class="i pk" transform="translate(100.36617187499999, 48) scale(0.65)"></path><text x="13" y="86" class="tf fk">item_id<tspan x="133.04" class="ty">varchar(10)</tspan></text><text x="13" y="111" class="tf">quantity<tspan x="133.04" class="ty">int</tspan></text></svg><svg width="172.06" height="175" x="1130.71" y="326.19" id="h3541999088" class="t"><rect height="40" width="172.06" class="th"></rect><text x="13" y="25" class="tht">staff</text><rect height="135" width="172.06" class="t-bg" y="40"></rect><text x="13" y="61" class="tf pk">staff_id<tspan x="159.06" class="ty">varchar(20)</tspan></text><path d="M7,14A2,2 0 0,1 5,12A2,2 0 0,1 7,10A2,2 0 0,1 9,12A2,2 0 0,1 7,14M12.65,10C11.83,7.67 9.61,6 7, 6A6, 6 0 0, 0 1, 12A6, 6 0 0, 0 7, 18C9.61, 18 11.83, 16.33 12.65, 14H17V18H21V14H23V10H12.65Z" class="i pk" transform="translate(77.706484375, 48) scale(0.65)"></path><text x="13" y="86" class="tf">first_name<tspan x="159.06" class="ty">varchar(50)</tspan></text><text x="13" y="111" class="tf">last_name<tspan x="159.06" class="ty">varchar(50)</tspan></text><text x="13" y="136" class="tf">position<tspan x="159.06" class="ty">varchar(100)</tspan></text><text x="13" y="161" class="tf">hourly_rate<tspan x="159.06" class="ty">decimal(5,2)</tspan></text></svg><svg width="145.83" height="175" x="854.45" y="14.52" id="h45573931" class="t"><rect height="40" width="145.83" class="th"></rect><text x="13" y="25" class="tht">rotation</text><rect height="135" width="145.83" class="t-bg" y="40"></rect><text x="13" y="61" class="tf pk">row_id<tspan x="132.83" class="ty">int</tspan></text><path d="M7,14A2,2 0 0,1 5,12A2,2 0 0,1 7,10A2,2 0 0,1 9,12A2,2 0 0,1 7,14M12.65,10C11.83,7.67 9.61,6 7, 6A6, 6 0 0, 0 1, 12A6, 6 0 0, 0 7, 18C9.61, 18 11.83, 16.33 12.65, 14H17V18H21V14H23V10H12.65Z" class="i pk" transform="translate(100.15617187500001, 48) scale(0.65)"></path><text x="13" y="86" class="tf">rota_id<tspan x="132.83" class="ty">varchar(20)</tspan></text><text x="13" y="111" class="tf fk">date<tspan x="132.83" class="ty">datetime</tspan></text><text x="13" y="136" class="tf fk">shift_id<tspan x="132.83" class="ty">varchar(20)</tspan></text><text x="13" y="161" class="tf fk">staff_id<tspan x="132.83" class="ty">varchar(20)</tspan></text></svg><svg width="178.07" height="150" x="1140" y="76.67" id="h3902158989" class="t"><rect height="40" width="178.07" class="th"></rect><text x="13" y="25" class="tht">shift</text><rect height="110" width="178.07" class="t-bg" y="40"></rect><text x="13" y="61" class="tf pk">shift_id<tspan x="165.07" class="ty">varchar(20)</tspan></text><path d="M7,14A2,2 0 0,1 5,12A2,2 0 0,1 7,10A2,2 0 0,1 9,12A2,2 0 0,1 7,14M12.65,10C11.83,7.67 9.61,6 7, 6A6, 6 0 0, 0 1, 12A6, 6 0 0, 0 7, 18C9.61, 18 11.83, 16.33 12.65, 14H17V18H21V14H23V10H12.65Z" class="i pk" transform="translate(83.716484375, 48) scale(0.65)"></path><text x="13" y="86" class="tf">day_of_week<tspan x="165.07" class="ty">varchar(10)</tspan></text><text x="13" y="111" class="tf">start_time<tspan x="165.07" class="ty">time</tspan></text><text x="13" y="136" class="tf">end_time<tspan x="165.07" class="ty">time</tspan></text></svg></g></g><text class="qdbd-link" x="10" y="20">www.quickdatabasediagrams.com</text></svg>